<?xml version="1.0" encoding="UTF-8"?>
<svg version="1.1" xmlns="http://www.w3.org/2000/svg" width="1200" height="1325">
<path d="M0 0 C34.2350879 17.60288714 66.1934735 39.58342281 95.81811523 64.11791992 C98.2304107 66.10955381 100.66730718 68.0705377 103.09985352 70.03735352 C121.28830408 84.96817114 138.27788905 101.09956494 154.88623047 117.75585938 C157.12620538 120.00126932 159.37158048 122.24118191 161.61743164 124.48071289 C163.07152893 125.93546998 164.52531654 127.3905367 165.97875977 128.84594727 C166.63614639 129.50130966 167.29353302 130.15667206 167.97084045 130.83189392 C171.81059344 134.69090365 175.46914166 138.65952755 179.02235413 142.78424072 C181.93469637 146.15431762 184.99040247 149.39568765 188.02172852 152.65844727 C190.53735352 155.53735352 190.53735352 155.53735352 192.61547852 158.51000977 C197.82999077 165.9038697 202.8302995 168.19873587 211.27563477 170.37719727 C223.72046934 173.59033096 236.8911658 179.91209868 246.01782227 189.01000977 C254.11302092 196.92949868 261.29459833 196.41496208 271.99145508 196.46850586 C310.43880889 197.50822141 346.79352276 219.0202847 376.53735352 241.53735352 C376.72938354 240.45260742 376.72938354 240.45260742 376.92529297 239.34594727 C381.20141965 219.72386458 392.57402329 200.44564648 401.53735352 182.53735352 C402.01817383 181.56781738 402.49899414 180.59828125 402.99438477 179.59936523 C415.64374375 154.19584349 431.16828948 130.18547058 449.53735352 108.53735352 C450.33270508 107.55766602 451.12805664 106.57797852 451.94750977 105.56860352 C470.75389253 82.65736271 497.54735672 51.82021039 528.53735352 47.53735352 C535.66975626 47.14722209 540.99271063 49.10676128 546.53735352 53.53735352 C547.06329102 53.9434082 547.58922852 54.34946289 548.13110352 54.76782227 C560.8331741 70.75126108 555.97921471 106.71936014 553.93530273 125.29516602 C549.20092022 163.86731311 536.51814702 200.68754634 523.41601562 237.08276367 C522.02553961 240.7184156 522.02553961 240.7184156 521.53735352 244.53735352 C525.85039549 240.79054889 530.12509278 237.00857569 534.34985352 233.16235352 C538.7209183 229.21903819 543.21407868 225.46111458 547.79125977 221.76000977 C549.51714243 220.36310046 551.23464656 218.95570908 552.93969727 217.53344727 C568.45509317 204.61620613 584.71705608 192.69086077 601.53735352 181.53735352 C602.23747559 181.07022949 602.93759766 180.60310547 603.65893555 180.12182617 C624.1664609 166.47433171 645.53055004 154.58622386 667.53735352 143.53735352 C668.39393555 143.10438965 669.25051758 142.67142578 670.13305664 142.2253418 C710.04932376 122.17626397 772.35100294 94.7567356 817.97094727 108.28344727 C822.88773651 110.0121322 826.65076779 112.07829222 830.53735352 115.53735352 C831.24375977 116.16254883 831.95016602 116.78774414 832.67797852 117.43188477 C840.91737494 125.65602305 843.99004313 135.96514776 844.16235352 147.34985352 C843.52692865 182.5620527 816.50538646 217.00133872 795.53735352 243.53735352 C794.88379883 244.37395508 794.23024414 245.21055664 793.55688477 246.07250977 C783.22170826 259.17793977 772.03876131 271.4537757 760.53735352 283.53735352 C761.40312012 283.55717285 762.26888672 283.57699219 763.16088867 283.59741211 C766.44513512 283.67659802 769.72901926 283.76330815 773.01293945 283.85473633 C774.42074214 283.89247388 775.82862335 283.92741046 777.23657227 283.95922852 C813.38714057 284.78552722 813.38714057 284.78552722 826.53735352 296.53735352 C832.27559871 303.54159045 832.97129684 309.96768141 832.15454102 318.82250977 C826.71048207 351.59023165 797.64996287 381.06008013 771.83764648 399.58032227 C745.34511394 418.09853204 715.13706383 430.88978826 685.53735352 443.53735352 C685.31154951 445.7284789 685.31154951 445.7284789 687.31079102 447.46313477 C695.10530537 454.61395799 703.49470157 460.7074609 712.1184082 466.81665039 C728.76292289 478.65663217 745.17032625 490.89065388 759.95532227 505.02709961 C761.07477701 506.09576428 762.20040932 507.15797519 763.33032227 508.21557617 C788.40113518 531.7550018 788.40113518 531.7550018 788.8828125 546.43554688 C789.09098703 563.00864823 783.12832721 574.62024123 775.0809021 588.76596069 C768.47308434 600.38331251 763.31806298 611.00328278 761.28735352 624.34985352 C759.40896367 634.77436793 752.48659633 640.5766967 744.22485352 646.59985352 C736.81287414 651.6105966 730.40109796 652.484068 721.53735352 651.53735352 C712.68086663 649.13536692 705.83569422 642.00964723 699.18432617 636.01245117 C697.72046926 634.70135964 696.2302463 633.41984065 694.73657227 632.14282227 C689.58401339 627.69543474 685.25804285 622.97373795 681.02954102 617.64672852 C678.04254689 613.92000857 674.96329792 610.28358324 671.84985352 606.66235352 C671.04777466 605.71658447 671.04777466 605.71658447 670.22949219 604.75170898 C664.18983215 597.74544185 658.50453266 593.80751938 649.84985352 590.66235352 C638.21456962 586.20599546 627.51228232 581.35654549 621.16235352 570.09985352 C619.33121189 562.59217286 620.72409259 557.63756241 624.29125977 550.89672852 C627.77168084 545.31066106 632.5966226 540.73753391 637.19750977 536.08032227 C640.40298997 532.76851215 643.10747101 529.46400575 645.53735352 525.53735352 C645.20735352 524.54735352 644.87735352 523.55735352 644.53735352 522.53735352 C638.88386778 520.27144246 633.50203427 520.26595869 627.47485352 520.34985352 C626.62213867 520.35049805 625.76942383 520.35114258 624.89086914 520.35180664 C620.09632065 520.38374664 615.37162232 520.62512505 610.59594727 521.04516602 C598.64695234 521.95290142 586.63715918 521.64119975 574.66235352 521.59985352 C572.12459398 521.59482921 569.58683348 521.59026795 567.04907227 521.58618164 C560.87847812 521.57524808 554.70792038 521.55858352 548.53735352 521.53735352 C548.40466064 522.30990479 548.27196777 523.08245605 548.13525391 523.87841797 C547.39430045 527.17352786 546.00525538 529.03486905 543.97485352 531.72485352 C543.25813477 532.68004883 542.54141602 533.63524414 541.80297852 534.61938477 C539.01919007 538.20471229 536.1864929 541.7459025 533.29907227 545.24829102 C532.71770508 546.00368164 532.13633789 546.75907227 531.53735352 547.53735352 C530.94567383 548.29274414 530.35399414 549.04813477 529.74438477 549.82641602 C528.06926068 553.58866882 528.44655261 556.68152074 529.53735352 560.53735352 C530.79163421 563.01511783 531.97765049 565.09633474 533.53735352 567.34985352 C534.14293091 568.25477539 534.14293091 568.25477539 534.76074219 569.17797852 C538.67035046 574.9243206 543.00332493 580.27296306 547.53735352 585.53735352 C548.51024881 586.67256536 549.48289237 587.80799298 550.45532227 588.94360352 C551.99774519 590.74445058 553.54234358 592.54311152 555.09521484 594.33496094 C558.19713509 597.92305085 561.13798698 601.59433346 564.03735352 605.34985352 C567.96789023 610.20105649 572.36405593 613.62108671 577.42797852 617.23266602 C582.31042366 620.8515638 586.69155876 624.95290407 591.08032227 629.14770508 C592.49268348 630.49474932 593.92104491 631.82495523 595.34985352 633.15454102 C616.38620229 653.29445448 630.51393844 680.92305048 635.53735352 709.53735352 C635.71089355 710.51889404 635.71089355 710.51889404 635.88793945 711.52026367 C639.73365776 734.58886772 638.46201735 759.27986277 633.04907227 781.97875977 C629.52869365 796.99949016 629.96003819 807.63295223 633.82836914 822.48266602 C635.06262884 827.80052325 635.6764906 833.18049774 636.28735352 838.59985352 C636.45944336 840.06080444 636.45944336 840.06080444 636.63500977 841.55126953 C644.25406029 909.61211016 635.06137713 988.18303112 591.53735352 1043.53735352 C591.12050293 1044.06844727 590.70365234 1044.59954102 590.27416992 1045.14672852 C552.92817742 1092.11063209 498.3158091 1114.12268703 439.88500977 1121.10961914 C434.83129143 1121.64168273 429.76553847 1121.94086985 424.69360352 1122.24047852 C423.75337341 1122.29803314 422.81314331 1122.35558777 421.84442139 1122.41488647 C417.14816979 1122.69868289 412.45384016 1122.94947821 407.75317383 1123.1472168 C395.38686629 1123.63043539 395.38686629 1123.63043539 385.53735352 1130.53735352 C384.20171303 1131.65088451 382.85347865 1132.74944716 381.49438477 1133.83422852 C380.11199321 1134.98421179 378.73050746 1136.13528466 377.34985352 1137.28735352 C370.74435807 1142.75947214 364.07136614 1148.09951572 357.22241211 1153.26586914 C355.40343697 1154.63840211 353.58967025 1156.0176749 351.77563477 1157.39672852 C296.18268485 1199.52323419 233.68524954 1238.26217653 166.97485352 1259.78735352 C166.04632568 1260.08754395 165.11779785 1260.38773438 164.16113281 1260.69702148 C157.79500202 1262.66617777 157.79500202 1262.66617777 155.53735352 1261.53735352 C160.02987797 1255.95362157 164.58815797 1250.44935848 169.31152344 1245.06030273 C175.17831748 1238.3659747 180.781854 1231.55851677 186.11645508 1224.4309082 C187.73460566 1222.27448623 189.36638594 1220.12869653 190.99829102 1217.98266602 C203.43072402 1201.58257347 215.32619132 1184.79754907 226.53735352 1167.53735352 C226.99819336 1166.82820801 227.4590332 1166.1190625 227.93383789 1165.38842773 C261.19951002 1118.23532939 261.19951002 1118.23532939 274.53735352 1064.53735352 C273.31658576 1061.6105676 271.73897595 1058.90999067 270.16235352 1056.16235352 C254.47613291 1027.52980215 243.38553934 995.02320127 239.53735352 962.53735352 C239.42649414 961.64274414 239.31563477 960.74813477 239.20141602 959.82641602 C234.9724736 919.02283654 244.4480702 876.79799132 270.53735352 844.53735352 C272.44851262 842.24264682 274.40876292 840.00169457 276.41235352 837.78735352 C277.15412842 836.96037964 277.15412842 836.96037964 277.91088867 836.11669922 C280.4754331 833.36719974 282.67319617 831.45528517 285.93188477 829.48657227 C289.56890101 827.26467029 292.52219807 825.32637983 294.53735352 821.53735352 C296.37232772 813.81060854 295.82799667 805.68730148 295.61938477 797.80737305 C295.507481 793.16132962 295.58269527 788.52327863 295.66235352 783.87719727 C295.69632786 781.42423748 295.72763099 778.97126322 295.75744629 776.51824951 C295.77729626 774.91311596 295.79949199 773.30800961 295.82409668 771.70294189 C295.85366042 769.44049157 295.86242592 767.17888229 295.86547852 764.91625977 C295.87482422 763.61245361 295.88416992 762.30864746 295.89379883 760.96533203 C295.51152597 757.28896679 294.76734203 755.44917662 292.53735352 752.53735352 C266.73399828 735.06363232 228.01717255 735.2534389 197.9453125 731.9387207 C195.75058383 731.68023987 193.56055932 731.37554908 191.38037109 731.0144043 C185.94459079 730.33963683 180.52537613 730.24636954 175.05297852 730.10766602 C172.5646829 730.0339303 170.07640206 729.95969498 167.58813477 729.88500977 C163.70526863 729.77237105 159.82242162 729.66325681 155.93920898 729.56323242 C109.30951277 728.3388072 109.30951277 728.3388072 91.53735352 717.53735352 C90.87735352 717.53735352 90.21735352 717.53735352 89.53735352 717.53735352 C88.01900366 719.77233273 88.01900366 719.77233273 86.47485352 722.66235352 C83.7590934 727.47458953 80.89258234 732.11393456 77.84985352 736.72485352 C71.07686275 747.08604315 67.26248808 755.99081198 68.53735352 768.53735352 C70.7119756 776.73494577 76.50336527 781.57295835 82.65454102 786.93579102 C88.82359611 792.50298708 93.97234719 799.09655185 94.85375977 807.58422852 C95.09980729 814.47355911 94.77008742 819.95296454 90.53735352 825.53735352 C85.01695202 830.21235322 79.80879153 831.89770213 72.84985352 833.59985352 C64.70351631 835.31048712 64.70351631 835.31048712 58.53735352 840.53735352 C59.5589637 844.25229964 60.82393657 846.9852568 63.09985352 850.03735352 C67.17534708 856.35013583 67.17426235 864.12145223 66.12719727 871.38110352 C64.17961386 878.93819362 60.19036422 884.99468385 53.72485352 889.41235352 C47.39118357 893.00223896 40.74956924 893.92372222 33.53735352 893.53735352 C32.83868164 893.33368164 32.14000977 893.13000977 31.42016602 892.92016602 C28.82272956 892.26406615 27.17687678 891.99614034 24.53735352 892.53735352 C20.99059185 895.78804819 18.35869895 899.65863898 15.53735352 903.53735352 C6.06949898 914.57338272 -7.17255934 923.38611179 -21.46264648 926.53735352 C-48.53553578 928.1708315 -69.1158861 919.77566788 -89.29077148 902.05297852 C-113.91373816 878.83703851 -128.33804484 842.8645802 -129.54418945 809.26586914 C-129.74332681 795.94276179 -127.34812724 781.52343593 -119.46264648 770.53735352 C-118.97280273 769.83868164 -118.48295898 769.14000977 -117.97827148 768.42016602 C-109.05063913 757.06174268 -95.03280579 751.0279368 -82.4597168 744.67358398 C-67.28694103 737.14430091 -67.28694103 737.14430091 -53.98608398 726.82250977 C-52.46264648 725.53735352 -52.46264648 725.53735352 -50.46264648 725.53735352 C-50.06239258 724.7059082 -50.06239258 724.7059082 -49.65405273 723.85766602 C-48.34198778 721.30236574 -46.89137963 718.86720906 -45.40014648 716.41235352 C-41.70057497 710.44463992 -41.70057497 710.44463992 -41.46264648 703.53735352 C-44.73306668 699.61284927 -48.45068258 698.73628045 -53.30249023 698.02172852 C-55.73581353 697.64875931 -57.96868412 697.16243835 -60.34155273 696.55297852 C-74.0623867 693.50338112 -82.32332661 698.96542605 -93.84985352 706.01342773 C-112.24653027 716.74339001 -133.71337574 720.91280651 -154.7734375 720.90795898 C-156.89526115 720.91234342 -159.0150142 720.94885959 -161.13647461 720.98657227 C-179.10000284 721.13452787 -193.73794141 715.13401198 -207.46264648 703.53735352 C-208.26444336 702.8812207 -209.06624023 702.22508789 -209.89233398 701.54907227 C-233.23344542 681.66186361 -245.80104509 650.58449789 -248.46264648 620.53735352 C-248.60489266 617.74240464 -248.6484685 614.95281289 -248.66577148 612.15454102 C-248.67283112 611.38621445 -248.67989075 610.61788788 -248.68716431 609.82627869 C-248.80744353 592.86765595 -248.70002044 576.2477878 -245.46264648 559.53735352 C-245.26396973 558.5020752 -245.06529297 557.46679688 -244.8605957 556.40014648 C-233.15577272 497.06940704 -207.33439807 419.40910511 -163.46264648 375.53735352 C-163.36747661 373.69850316 -163.36747661 373.69850316 -163.71264648 371.53735352 C-163.81963867 370.63887695 -163.92663086 369.74040039 -164.03686523 368.81469727 C-164.26218096 367.08038632 -164.48772282 365.34610402 -164.71508789 363.61206055 C-170.43134875 319.29275106 -158.19846181 276.79639564 -130.81616211 241.24926758 C-126.54848871 235.85155368 -122.07060434 230.64624969 -117.46264648 225.53735352 C-116.78717773 224.7884082 -116.11170898 224.03946289 -115.41577148 223.26782227 C-95.8936298 202.78625909 -69.65833243 189.30244952 -42.46264648 182.53735352 C-41.78073242 182.35946289 -41.09881836 182.18157227 -40.39624023 181.99829102 C-21.84881223 177.35221561 0.69305252 177.88503419 19.53735352 180.53735352 C3.60994487 165.47321905 -15.50243421 153.41729359 -34.46264648 142.53735352 C-35.23898437 142.09166016 -36.01532227 141.6459668 -36.81518555 141.18676758 C-102.9605732 103.52602908 -174.01453943 87.87229581 -248.61218262 78.59106445 C-330.62751544 68.37248456 -330.62751544 68.37248456 -340.46264648 58.53735352 C-340.29548135 55.94629391 -339.77787505 54.83843217 -337.89624023 53.04125977 C-334.66425967 51.04396841 -331.30981396 50.2571521 -327.65014648 49.41235352 C-326.62050781 49.15905273 -326.62050781 49.15905273 -325.57006836 48.90063477 C-318.83487586 47.28214953 -312.26758096 46.41238575 -305.32592773 46.36938477 C-304.32362373 46.36296463 -304.32362373 46.36296463 -303.30107117 46.35641479 C-301.12569477 46.34641465 -298.95054165 46.34637455 -296.77514648 46.34985352 C-296.02144775 46.3507901 -295.26774902 46.35172668 -294.49121094 46.35269165 C-208.36440196 46.5831047 -123.29611276 73.19601401 -34.46264648 124.53735352 C-33.53597168 125.09696777 -32.60929687 125.65658203 -31.65454102 126.2331543 C-19.98736775 133.29243923 -8.57851613 140.63845893 2.53735352 148.53735352 C3.2655127 149.05297852 3.99367188 149.56860352 4.74389648 150.09985352 C21.19431583 161.77547637 37.0694228 174.06144427 52.03735352 187.59985352 C56.20747878 191.21511804 58.7938093 192.45298847 64.41235352 192.72485352 C70.53791008 191.87436302 75.40089895 188.23017205 80.52563477 185.01000977 C105.76273335 169.22532945 133.55156667 162.28980575 163.09985352 162.47485352 C164.50414879 162.47987986 165.90844581 162.48444075 167.31274414 162.48852539 C170.72099255 162.50023758 174.12914992 162.5166398 177.53735352 162.53735352 C171.4394171 154.82079007 171.4394171 154.82079007 164.97485352 147.41235352 C162.34434761 144.53132324 159.75350451 141.63290468 157.22485352 138.66235352 C149.96571173 130.33966305 141.95337298 122.67461384 133.53735352 115.53735352 C132.58086914 114.69172852 131.62438477 113.84610352 130.63891602 112.97485352 C99.42233972 85.48702793 63.59444507 64.11298933 26.53735352 45.53735352 C25.54590332 45.03961426 24.55445313 44.541875 23.53295898 44.02905273 C-0.95765402 31.81910723 -26.41997246 22.33733477 -52.15213013 13.14988708 C-78.1630503 3.86258997 -104.13184915 -5.42370747 -129.46264648 -16.46264648 C-130.35387207 -16.85033203 -131.24509766 -17.23801758 -132.16333008 -17.63745117 C-141.58302087 -21.77939064 -151.08668851 -26.08668851 -158.46264648 -33.46264648 C-158.58764648 -36.08764648 -158.58764648 -36.08764648 -158.46264648 -38.46264648 C-118.7138305 -59.29939423 -34.74233696 -17.49508498 0 0 Z " fill="#003057" transform="translate(349.462646484375,48.462646484375)"/>
<path d="M0 0 C34.66914708 -1.0174641 63.24954983 10.15573088 88.71191406 33.85644531 C123.61754844 67.02023582 142.64444905 116.1474344 144.27734375 163.765625 C144.66787357 182.64700872 143.1198847 201.03719849 137 219 C136.70101807 219.97936523 136.70101807 219.97936523 136.39599609 220.97851562 C135.76288519 223.04307127 135.07628096 225.0827077 134.375 227.125 C133.97023438 228.34445312 133.56546875 229.56390625 133.1484375 230.8203125 C130.00550375 235.47185445 126.19048059 236.30668466 121 238 C119.34086259 238.63234439 117.68577011 239.27541673 116.03515625 239.9296875 C115.22103271 240.24671631 114.40690918 240.56374512 113.56811523 240.89038086 C94.82207668 248.25691827 81.31049933 258.30860022 67.3125 272.625 C65.35379634 274.62069675 63.39171764 276.61299013 61.42578125 278.6015625 C60.95048981 279.08244324 60.47519836 279.56332397 59.98550415 280.05877686 C57.45140091 282.60376936 54.87291151 285.04167627 52.13671875 287.3671875 C45.90124039 292.69138192 40.26042068 298.67396021 34.5 304.5 C32.13845147 306.88844982 29.773397 309.27334995 27.40625 311.65625 C26.61994202 312.45500549 26.61994202 312.45500549 25.81774902 313.26989746 C23.05224458 316.05316978 20.22414078 318.69853525 17.24609375 321.25390625 C12.13388779 325.68018374 7.41401791 330.48047072 2.65625 335.28125 C1.67823581 336.26368378 0.69991749 337.24581488 -0.27868652 338.22766113 C-3.35531395 341.31560571 -6.42796436 344.40748814 -9.5 347.5 C-13.06553903 351.08930463 -16.63277928 354.67688508 -20.20429993 358.26023865 C-21.61758629 359.67991157 -23.02777111 361.10266999 -24.43786621 362.5255127 C-28.91245552 367.01700358 -33.42918543 371.38099013 -38.25468445 375.49526978 C-41.37158108 378.18251367 -44.32569635 381.04512472 -47.3125 383.875 C-53.33629294 389.5259484 -59.43999982 394.97002901 -66 400 C-66.86367188 400.67804688 -67.72734375 401.35609375 -68.6171875 402.0546875 C-97.97885118 423.77754437 -134.58468847 435.06685667 -169 446 C-170.13066895 446.36109863 -171.26133789 446.72219727 -172.42626953 447.09423828 C-211.62641104 459.47683097 -254.57867609 468.12586423 -295.6875 468.3125 C-296.69651367 468.31805908 -297.70552734 468.32361816 -298.74511719 468.3293457 C-305.87002197 468.25896291 -312.94236018 468.03842655 -319 464 C-319 463.34 -319 462.68 -319 462 C-317.47802734 460.67822266 -317.47802734 460.67822266 -315.3359375 459.1640625 C-314.55049561 458.60058105 -313.76505371 458.03709961 -312.95581055 457.45654297 C-312.10414307 456.85213379 -311.25247559 456.24772461 -310.375 455.625 C-302.46605087 449.90820125 -294.97771079 443.92200688 -287.66943359 437.46337891 C-285.96763257 435.97162762 -284.24754643 434.50424656 -282.51953125 433.04296875 C-275.19871684 426.84937087 -268.111817 420.45329924 -261.11328125 413.8984375 C-258.12659613 411.10539166 -255.07427288 408.39977237 -251.9765625 405.73046875 C-249.50842377 403.56962793 -247.10195991 401.34562298 -244.6875 399.125 C-240.14475315 394.97754742 -235.45880038 391.06767305 -230.671875 387.20703125 C-228.1014095 385.08376662 -225.64080637 382.88188151 -223.1875 380.625 C-219.26532168 377.04577845 -215.19529624 373.7471368 -211 370.5 C-205.08323461 365.91759342 -199.53147157 361.0418848 -194 356 C-178.42331797 341.85338059 -160.62959463 330.68693813 -142 321 C-141.14728516 320.5551123 -140.29457031 320.11022461 -139.41601562 319.65185547 C-126.91647262 313.17486045 -114.20432344 307.22308399 -101.375 301.4375 C-79.46381586 291.5382536 -58.61934086 280.72556504 -38.21435547 268.00244141 C-35.35910631 266.22371183 -32.49581237 264.45906392 -29.62890625 262.69921875 C-13.67335191 252.8427159 1.46142875 241.84165988 16 230 C16.5451123 229.55930176 17.09022461 229.11860352 17.65185547 228.66455078 C33.40895907 215.84245734 48.06038816 201.46409632 60 185 C60.67289063 184.11054688 61.34578125 183.22109375 62.0390625 182.3046875 C70.59343119 170.69258702 74.2085042 159.45098684 73 145 C70.22509049 133.69422582 62.59215767 125.08713776 52.875 119.0625 C49.60369041 117.85353776 48.20150362 117.615566 45 119 C42.98733671 121.6319443 41.9386553 124.16612124 40.79101562 127.27392578 C38.9789665 131.50088841 36.22942397 134.31482266 32.96875 137.4921875 C32.37759399 138.08242706 31.78643799 138.67266663 31.17736816 139.28079224 C29.92798665 140.52415803 28.67377407 141.76268623 27.41503906 142.99658203 C25.52302819 144.85241218 23.64718906 146.72341134 21.7734375 148.59765625 C14.81907976 155.51062619 7.70355218 161.92455518 0 168 C-1.56542306 169.30901228 -3.12832281 170.62105441 -4.6875 171.9375 C-8.83885834 175.2730605 -13.20058599 178.00881088 -17.75 180.75 C-25.2324376 185.29040756 -31.62910374 190.56985372 -38.14892578 196.37744141 C-41.49288192 199.30858524 -44.93599854 202.11909951 -48.375 204.9375 C-49.08599854 205.52136475 -49.79699707 206.10522949 -50.52954102 206.70678711 C-58.97692551 213.6346172 -67.46183229 220.51672138 -75.953125 227.390625 C-86.73492088 236.15477487 -97.35413317 244.97913187 -107 255 C-112 260 -112 260 -113.94921875 261.84375 C-118.12402455 265.86555245 -121.73986091 269.9168616 -125.125 274.625 C-130.27668852 281.66894544 -136.45706848 287.73524475 -142.625 293.875 C-143.37357269 294.62200165 -143.37357269 294.62200165 -144.13726807 295.38409424 C-149.39007059 300.61363044 -154.7108055 305.72250598 -160.33740234 310.55126953 C-162.49851979 312.43439302 -164.5046433 314.44324771 -166.5 316.5 C-169.74256259 319.78103368 -173.07047022 322.85459996 -176.5703125 325.85546875 C-179.94544268 328.83448236 -183.21765093 331.91946264 -186.5 335 C-190.97931691 339.19980404 -195.46855631 343.36695359 -200.125 347.37109375 C-202.38751181 349.33665089 -204.59690683 351.35673309 -206.8125 353.375 C-210.27530082 356.50422827 -213.80679003 359.50500349 -217.4375 362.4375 C-221.24087503 365.51336588 -224.90082652 368.68753166 -228.5 372 C-232.89028569 376.03633055 -237.4117562 379.84030529 -242.05078125 383.5859375 C-245.4136886 386.33862193 -248.70920237 389.16192121 -252 392 C-257.0612669 396.3594946 -262.17175061 400.64621212 -267.359375 404.85546875 C-269.14765877 406.30778796 -270.9287324 407.76902264 -272.703125 409.23828125 C-284.79369627 419.23891092 -297.42938032 428.02835442 -310.50390625 436.6796875 C-315.86371205 440.23139518 -321.18098908 443.8411376 -326.48510742 447.4753418 C-380.76032566 484.63367292 -380.76032566 484.63367292 -412 493 C-413.04800781 493.28230469 -414.09601563 493.56460937 -415.17578125 493.85546875 C-427.90622491 496.66559631 -441.07801131 496.28710441 -452.42578125 489.5625 C-466.09665786 480.0043745 -471.05603381 462.63484749 -474 447 C-475.04815246 440.98338976 -475.17730654 435.10418955 -475.203125 429.00390625 C-475.20882507 427.93873276 -475.21452515 426.87355927 -475.22039795 425.77610779 C-475.22982535 423.51765933 -475.23637293 421.25919726 -475.24023438 419.00073242 C-475.24980151 415.63238483 -475.28078763 412.26468536 -475.3125 408.89648438 C-475.49915929 370.62781527 -467.52877042 331.69586163 -457 295 C-456.58524414 293.55439697 -456.58524414 293.55439697 -456.16210938 292.07958984 C-451.56336436 276.43814728 -444.9999888 262.30507696 -437.47314453 247.87353516 C-435.51251769 244.04911057 -433.71565786 240.16156734 -431.9375 236.25 C-427.16284865 225.88613769 -421.55876396 215.95806714 -416 206 C-415.61279785 205.30181152 -415.2255957 204.60362305 -414.82666016 203.88427734 C-400.61155568 178.28395755 -383.24924512 153.28337034 -362 133 C-363.68994616 132.03660878 -363.68994616 132.03660878 -366 132 C-368.12274813 133.60115859 -369.88215053 135.13837274 -371.75 137 C-372.8272309 138.03608666 -373.90535522 139.07124523 -374.984375 140.10546875 C-375.50451172 140.60997559 -376.02464844 141.11448242 -376.56054688 141.63427734 C-378.30202112 143.28655124 -380.13785352 144.79852797 -382 146.3125 C-403.47670688 165.03805848 -418.74927001 192.20078735 -432 217 C-432.46374023 217.8657666 -432.92748047 218.7315332 -433.40527344 219.62353516 C-436.48085572 225.38742701 -439.49790401 231.17898844 -442.46777344 236.99804688 C-443.47604764 238.97346746 -444.48958412 240.94621243 -445.50878906 242.91601562 C-474.23040021 298.71265696 -495.81861276 373.22533334 -485 436 C-484.8875293 436.67740234 -484.77505859 437.35480469 -484.65917969 438.05273438 C-482.73574761 449.55093718 -480.10620884 460.07934806 -475.0859375 470.65234375 C-474 473 -474 473 -473 476 C-483.00241536 472.66586155 -489.07939969 456.75186461 -493.66015625 447.73046875 C-496.89594166 440.7540823 -499.0054164 433.77109075 -500.8125 426.3125 C-501.01963623 425.457771 -501.22677246 424.60304199 -501.44018555 423.72241211 C-504.17590189 411.69701928 -504.24085493 399.58626956 -504.25 387.3125 C-504.25067474 386.49530487 -504.25134949 385.67810974 -504.25204468 384.83615112 C-504.14628119 303.84800967 -462.36096404 224.63320887 -411 164 C-410.10765282 162.93394525 -409.21574952 161.86751885 -408.32421875 160.80078125 C-402.68555679 154.07342303 -396.91679863 147.48513606 -391 141 C-390.21753906 140.12472656 -389.43507813 139.24945313 -388.62890625 138.34765625 C-382.86404633 131.95103086 -376.89123674 125.7867583 -370.8125 119.6875 C-370.06427979 118.9346875 -369.31605957 118.181875 -368.54516602 117.40625 C-364.43375643 113.30617911 -360.23249152 109.37743906 -355.83325195 105.58813477 C-353.2250219 103.32864129 -350.71261528 100.97706542 -348.1875 98.625 C-343.59440625 94.38689299 -338.88729778 90.34399807 -334.015625 86.42578125 C-331.80357784 84.64640135 -329.60793161 82.85369447 -327.421875 81.04296875 C-310.01822108 66.67198705 -291.57781143 53.79621006 -273 41 C-272.34 41.33 -271.68 41.66 -271 42 C-271.38671875 42.99257813 -271.7734375 43.98515625 -272.171875 45.0078125 C-286.04387799 81.02055023 -292.01772082 121.6951473 -276 158 C-263.90887144 183.98445786 -240.47685891 199.54043822 -214.4296875 209.34375 C-206.44560217 211.93318308 -198.25286805 213.52876086 -190 215 C-188.98421875 215.20753906 -187.9684375 215.41507813 -186.921875 215.62890625 C-167.35010691 219.14493996 -146.42069325 217.82169753 -127 214 C-126.1332666 213.83371094 -125.2665332 213.66742188 -124.37353516 213.49609375 C-111.18534247 210.88791794 -99.13001158 206.7723063 -87 201 C-85.98317139 200.52240234 -85.98317139 200.52240234 -84.94580078 200.03515625 C-74.91444409 195.24909941 -66.46981715 189.15106685 -58 182 C-57.04746338 181.20770996 -57.04746338 181.20770996 -56.07568359 180.39941406 C-22.81468564 152.68603733 0.12860959 112.73944657 4.79081726 69.3821106 C5.11321256 65.71076915 5.18181149 62.05497288 5.203125 58.37109375 C5.20882507 57.57832535 5.21452515 56.78555695 5.22039795 55.96876526 C5.2297749 54.30072329 5.23635252 52.63266341 5.24023438 50.96459961 C5.24988372 48.46758984 5.28095401 45.97142496 5.3125 43.47460938 C5.39182024 31.27883891 3.88185568 20.14068192 0.8125 8.3125 C0.08317662 5.33910469 -0.0670319 3.02674814 0 0 Z " fill="#B2A268" transform="translate(619,264)"/>
<path d="M0 0 C5.12620709 4.61442536 6.26172028 9.49242867 6.71875 16.19921875 C7.77220207 50.31100015 -11.79647906 79.02948581 -33.6875 103.625 C-34.30633057 104.33068115 -34.92516113 105.0363623 -35.56274414 105.76342773 C-41.48660189 112.45082595 -47.70912619 118.80054533 -54.03540039 125.10327148 C-55.7545867 126.81707233 -57.46832583 128.53619082 -59.18164062 130.25585938 C-64.84746253 135.92546753 -70.55285243 141.45792958 -76.6875 146.625 C-77.77051262 147.56266979 -78.85257413 148.50143946 -79.93359375 149.44140625 C-92.00726467 159.85006689 -104.23906302 170.08374687 -116.87109375 179.81079102 C-121.29880473 183.24102793 -125.50045869 186.90624179 -129.6875 190.625 C-129.02854736 190.34825439 -128.36959473 190.07150879 -127.69067383 189.78637695 C-121.31971874 187.11350179 -114.94183213 184.45794345 -108.55761719 181.81689453 C-106.36979812 180.90834292 -104.18750693 179.98646792 -102.0078125 179.05859375 C-92.42058539 175.12237449 -82.36813233 172.71883844 -72.31835938 170.27539062 C-70.1671078 169.74356674 -68.02692425 169.16714578 -65.890625 168.578125 C-57.34163241 166.45091088 -48.84241835 166.2563731 -40.0625 166.125 C-38.84675293 166.09422363 -37.63100586 166.06344727 -36.37841797 166.03173828 C-25.04960288 166.03020384 -14.46269621 168.74331893 -6.2109375 176.890625 C-1.6427904 182.09128478 -1.14437695 186.74332105 -1.34375 193.48046875 C-2.99828466 208.61570057 -12.99543444 220.71539104 -23.27099609 231.17333984 C-24.49086077 232.42348038 -25.68021424 233.70326233 -26.86328125 234.98828125 C-44.19012233 253.39174158 -67.78547022 266.51883319 -89.6875 278.625 C-90.38601074 279.01751953 -91.08452148 279.41003906 -91.80419922 279.81445312 C-101.57185684 285.29652377 -111.67695621 290.00872294 -121.875 294.625 C-122.83466675 295.06270218 -122.83466675 295.06270218 -123.8137207 295.50924683 C-125.65733396 296.34754102 -127.5063319 297.17396132 -129.35546875 298 C-130.96844849 298.72316406 -130.96844849 298.72316406 -132.61401367 299.4609375 C-135.69272487 300.62697888 -138.41168148 301.32099849 -141.6875 301.625 C-144.30078125 300.359375 -144.30078125 300.359375 -147 298.375 C-148.04285156 297.63636719 -149.08570313 296.89773438 -150.16015625 296.13671875 C-150.72492676 295.73114746 -151.28969727 295.32557617 -151.87158203 294.90771484 C-163.00094624 287.04623601 -174.6949873 280.07300846 -186.6875 273.625 C-187.29819336 273.28903809 -187.90888672 272.95307617 -188.53808594 272.60693359 C-205.98282905 263.05563404 -225.17382446 256.37842749 -244.6875 252.625 C-245.70457031 252.40199219 -246.72164062 252.17898438 -247.76953125 251.94921875 C-280.39567708 245.66344754 -314.30546484 254.52961028 -341.5390625 272.87207031 C-349.85362504 278.73980251 -357.33961864 285.61111325 -364.6875 292.625 C-365.54085937 293.42550781 -366.39421875 294.22601563 -367.2734375 295.05078125 C-372.12967822 299.7308492 -376.27314453 304.62507921 -380.3125 310 C-384.27040369 315.20573607 -387.30637272 318.71066182 -393.6875 320.625 C-397.625 320.9375 -397.625 320.9375 -400.6875 320.625 C-402.22656801 319.08593199 -401.85705456 317.71236372 -401.875 315.5625 C-401.58025448 294.54714464 -398.84030616 258.26513342 -384.875 241.8125 C-384.07191406 240.8534375 -383.26882813 239.894375 -382.44140625 238.90625 C-382.00070801 238.38289062 -381.56000977 237.85953125 -381.10595703 237.3203125 C-378.47615531 234.17722418 -375.89613205 230.99355648 -373.3125 227.8125 C-372.75651123 227.12889404 -372.20052246 226.44528809 -371.62768555 225.7409668 C-367.65033935 220.84013287 -363.73786906 215.89223712 -359.85424805 210.91699219 C-356.33418956 206.41875075 -352.7389178 201.9855353 -349.125 197.5625 C-344.43824046 191.81973295 -339.85915064 186.015024 -335.36328125 180.12109375 C-331.51059503 175.07177359 -327.5929316 170.07258073 -323.68383789 165.06689453 C-323.12301514 164.34743652 -322.56219238 163.62797852 -321.984375 162.88671875 C-321.49291992 162.25725342 -321.00146484 161.62778809 -320.49511719 160.97924805 C-319.44237496 159.60815224 -318.4005656 158.22825831 -317.38754272 156.82756042 C-313.86568586 151.99793356 -310.06880864 147.72497315 -305.8203125 143.52734375 C-304.86268509 142.57040367 -304.86268509 142.57040367 -303.88571167 141.59413147 C-302.54516005 140.25657804 -301.20220206 138.92143233 -299.85693359 137.58862305 C-297.81941617 135.56935423 -295.79000753 133.54220615 -293.76171875 131.51367188 C-287.57125128 125.34026406 -281.364627 119.27559094 -274.6875 113.625 C-272.91179779 112.00532183 -271.14041693 110.38088282 -269.375 108.75 C-263.97263479 103.82998883 -258.3990688 99.18047378 -252.6875 94.625 C-251.66398438 93.80644531 -250.64046875 92.98789062 -249.5859375 92.14453125 C-245.97666856 89.27413384 -242.33574258 86.44561571 -238.6875 83.625 C-237.98044922 83.07602051 -237.27339844 82.52704102 -236.54492188 81.96142578 C-190.81479371 46.59109859 -138.06158556 14.36874865 -81.61035156 0.12646484 C-78.65290718 -0.64481382 -75.73740615 -1.55188457 -72.8125 -2.4375 C-67.06897599 -4.08424465 -61.28976782 -5.37570295 -55.4375 -6.5625 C-54.62168457 -6.72951416 -53.80586914 -6.89652832 -52.96533203 -7.06860352 C-34.60268993 -10.67032102 -15.26093173 -12.75377866 0 0 Z " fill="#FEFEFE" transform="translate(1167.6875,179.375)"/>
<path d="M0 0 C0.33 0 0.66 0 1 0 C2.71722436 57.1769665 -18.41965705 118.13522387 -57.609375 160.4765625 C-58.39828125 161.30929687 -59.1871875 162.14203125 -60 163 C-60.89203125 163.95648437 -61.7840625 164.91296875 -62.703125 165.8984375 C-93.41667579 198.18864856 -143.07041782 212.58082788 -186.7265625 214.33984375 C-199.12745511 214.62125718 -210.93593655 213.88300183 -223 211 C-224.90072266 210.56494141 -224.90072266 210.56494141 -226.83984375 210.12109375 C-263.20758143 201.15113575 -295.78051392 177.12135582 -315.16455078 145.07470703 C-328.25541584 122.85319321 -333.22653795 98.27114287 -333.25 72.6875 C-333.25100708 71.92811127 -333.25201416 71.16872253 -333.25305176 70.38632202 C-333.24255625 58.68645647 -332.69057454 47.43148524 -330 36 C-329.83419434 35.2771582 -329.66838867 34.55431641 -329.49755859 33.80957031 C-326.64990615 21.64990615 -326.64990615 21.64990615 -324 19 C-322.556163 22.09393644 -321.77170935 25.03666084 -321.1875 28.375 C-316.43081359 53.11714405 -302.47521802 73.39375893 -281.76953125 87.546875 C-239.6191327 115.465097 -179.62877477 120.64337227 -131.0234375 111.4765625 C-97.01567408 104.55462835 -66.92102507 89.09377113 -42 65 C-41.34644531 64.39800781 -40.69289063 63.79601562 -40.01953125 63.17578125 C-22.18454812 46.35751925 -9.17999034 22.45038455 0 0 Z " fill="#B2A268" transform="translate(969,856)"/>
<path d="M0 0 C8.19068665 7.80065395 10.46852257 17.57602062 10.875 28.59765625 C12.06073163 90.49723896 -13.90285404 177.71648117 -54.65625 225.19921875 C-59.698589 231.19626531 -64.09269182 237.71588495 -68.64111328 244.08837891 C-71.57623601 248.1707701 -74.57108454 252.20877934 -77.5625 256.25 C-87.36087293 269.34816928 -87.36087293 269.34816928 -96.5234375 282.88671875 C-97.13445313 283.74910156 -97.74546875 284.61148437 -98.375 285.5 C-99.035 285.5 -99.695 285.5 -100.375 285.5 C-100.58253906 284.52804687 -100.79007813 283.55609375 -101.00390625 282.5546875 C-108.32241509 249.36762391 -120.55984511 209.28738095 -142.4375 182.6875 C-145.10692905 178.29585866 -144.39911986 175.40670387 -143.375 170.5 C-142.31282921 167.07184641 -140.97160815 163.79882824 -139.5625 160.5 C-139.16724121 159.55721191 -138.77198242 158.61442383 -138.36474609 157.64306641 C-124.09743469 124.0997651 -106.52634839 91.79609248 -83.375 63.5 C-82.65699219 62.60410156 -81.93898438 61.70820313 -81.19921875 60.78515625 C-78.95033984 58.00102019 -76.66765513 55.24817446 -74.375 52.5 C-73.95589355 51.98920898 -73.53678711 51.47841797 -73.10498047 50.95214844 C-66.80631361 43.28440761 -60.13888451 36.08358341 -53.125 29.0625 C-52.38064697 28.31734131 -51.63629395 27.57218262 -50.86938477 26.80444336 C-46.76744166 22.74351512 -42.56862662 18.8515854 -38.19677734 15.08325195 C-36.57679831 13.67537684 -34.99717527 12.23938532 -33.43359375 10.76953125 C-24.06454192 1.98691783 -13.28976568 -5.90656252 0 0 Z " fill="#FEFEFE" transform="translate(879.375,120.5)"/>
<path d="M0 0 C27.58052605 19.64821523 46.44413862 49.16116403 52.2734375 82.515625 C55.7011853 105.48403728 51.67235479 127.39214364 44 149 C43.75878418 149.68223633 43.51756836 150.36447266 43.26904297 151.06738281 C38.10748342 165.39204085 31.10040916 177.57013527 21 189 C20.25621094 189.85335937 19.51242187 190.70671875 18.74609375 191.5859375 C16.53065836 194.09034272 14.27899598 196.5533721 12 199 C11.31550781 199.73863281 10.63101563 200.47726562 9.92578125 201.23828125 C3.52471642 207.89964816 -3.58917167 213.51815222 -11 219 C-11.56928223 219.4242627 -12.13856445 219.84852539 -12.72509766 220.28564453 C-27.47240222 231.12065813 -44.21746271 238.669846 -61.5 244.5 C-62.4293335 244.81404785 -63.35866699 245.1280957 -64.31616211 245.45166016 C-77.61470086 249.72280902 -90.23110632 251.50232709 -104.11572266 251.39111328 C-106.49830328 251.37501147 -108.87918856 251.39107252 -111.26171875 251.41015625 C-142.29625519 251.4548313 -169.24728316 238.64334492 -191.25 217.1875 C-199.9259735 208.43411364 -207.04999414 198.30685549 -212 187 C-207.59586995 186.93009317 -203.37695673 186.93522112 -199.0078125 187.4934082 C-193.67704929 188.09549619 -188.38794781 188.17968557 -183.02734375 188.203125 C-181.9871962 188.20882507 -180.94704865 188.21452515 -179.87538147 188.22039795 C-177.67596436 188.22980485 -175.47653343 188.23636469 -173.27709961 188.24023438 C-169.99891595 188.24982041 -166.72139313 188.28083535 -163.44335938 188.3125 C-120.61873287 188.52524783 -70.81178661 180.29512974 -38.54296875 149.66796875 C-22.68199098 132.91810957 -11.90148677 110.73828731 -4.68603516 89.05859375 C-4.07653684 87.22966499 -3.43687269 85.41085108 -2.79296875 83.59375 C2.33567267 68.38070129 3.29154185 53.27799303 3.375 37.375 C3.38285522 36.64295349 3.39071045 35.91090698 3.39880371 35.15667725 C3.48091313 25.31263938 2.57643606 16.05665855 0.64306641 6.40087891 C0 3 0 3 0 0 Z " fill="#B2A268" transform="translate(863,609)"/>
<path d="M0 0 C-1.32332222 3.6650836 -2.94815556 6.55097774 -5.25 9.6875 C-22.86507227 34.53019986 -31.22138082 62.65450019 -27 93 C-36.45127797 85.16894111 -39.21826095 71.23243962 -42.25 59.8125 C-42.43763916 59.13485596 -42.62527832 58.45721191 -42.81860352 57.7590332 C-44.30454229 51.9569656 -43.83520591 47.56602977 -41.5 42.125 C-39.89832896 38.07785074 -39.38628643 34.32640803 -39 30 C-46.25750908 36.22072207 -49.59775356 44.69707054 -51 54 C-51.23957459 57.65172845 -51.23573296 61.27941087 -51.1875 64.9375 C-51.18685547 65.86240234 -51.18621094 66.78730469 -51.18554688 67.74023438 C-51.49388823 79.90982424 -51.49388823 79.90982424 -47.375 91 C-46.57835937 92.23363281 -46.57835937 92.23363281 -45.765625 93.4921875 C-44.55781195 95.20770957 -43.3162433 96.89982381 -42.046875 98.5703125 C-36.5357535 105.89607156 -36.5357535 105.89607156 -36.3125 110.1875 C-37.53022304 116.94032774 -41.64020884 122.12643018 -45.8125 127.4375 C-46.25190918 127.99953125 -46.69131836 128.5615625 -47.14404297 129.140625 C-48.4224348 130.7660556 -49.70989292 132.38386183 -51 134 C-51.63550781 134.80566406 -52.27101563 135.61132812 -52.92578125 136.44140625 C-57.76578532 142.30504337 -63.63165705 146.78949712 -71 149 C-72.27230469 149.02964844 -73.54460937 149.05929687 -74.85546875 149.08984375 C-77.3550054 149.39441629 -78.59876435 149.60570854 -80.41064453 151.38623047 C-81.67093717 153.3116046 -82.75218509 155.27023117 -83.8125 157.3125 C-93.16024005 173.65461352 -105.89743236 184.96581079 -124 191 C-142.01989523 192.79291149 -157.35501097 189.02017209 -172 178 C-184.03835223 167.86111233 -193.1876803 154.97195902 -195.25878906 139.00488281 C-196.26897401 126.01225255 -194.52870061 111.85306192 -187 101 C-186.41089844 100.12988281 -185.82179688 99.25976562 -185.21484375 98.36328125 C-176.06586087 85.32188816 -165.04967558 72.20578848 -149 68 C-148.0409375 67.96132813 -147.081875 67.92265625 -146.09375 67.8828125 C-140.31232759 67.64311749 -140.31232759 67.64311749 -135.57324219 64.578125 C-132.47929144 60.65810891 -129.92452549 56.38039094 -127.328125 52.12207031 C-116.34096247 34.56684665 -100.3938619 19.08281466 -83 8 C-82.15566406 7.4328125 -81.31132813 6.865625 -80.44140625 6.28125 C-73.42727428 1.76640643 -65.83000045 -1.23503109 -58 -4 C-57.030625 -4.34417969 -56.06125 -4.68835938 -55.0625 -5.04296875 C-36.98435215 -10.27482404 -16.6200549 -8.59104287 0 0 Z " fill="#B2A268" transform="translate(923,448)"/>
<path d="M0 0 C2.93587674 1.83156669 5.78317326 3.77630007 8.625 5.75 C9.87482666 6.61238281 9.87482666 6.61238281 11.14990234 7.4921875 C20.24207445 13.8029233 29.1501162 20.3552061 38 27 C38.79341797 27.59441895 39.58683594 28.18883789 40.40429688 28.80126953 C42.7323284 30.54919361 45.0548691 32.30410625 47.375 34.0625 C48.07061035 34.58650391 48.7662207 35.11050781 49.48291016 35.65039062 C53.27241239 38.54279766 56.69577022 41.54557796 60 45 C60.87785156 45.86044922 60.87785156 45.86044922 61.7734375 46.73828125 C72.02304752 56.81289793 82.52097974 67.59041514 84.4375 82.375 C83.59839976 89.32754482 81.31109573 97.17173115 76 102 C73.25 102.8125 73.25 102.8125 71 103 C70.87625 102.360625 70.7525 101.72125 70.625 101.0625 C70.41875 100.381875 70.2125 99.70125 70 99 C69.34 98.67 68.68 98.34 68 98 C67.938125 99.03125 67.87625 100.0625 67.8125 101.125 C66.23172864 113.34927579 59.96332193 124.44419351 54.1875 135.125 C53.14569871 137.05553143 52.10701901 138.98740368 51.07844543 140.92501831 C50.15940293 142.6562168 49.22885536 144.3812934 48.29760742 146.10595703 C46.72724744 149.07971189 46.72724744 149.07971189 47 153 C47.94875 153.061875 48.8975 153.12375 49.875 153.1875 C53 154 53 154 54.375 156.25 C55.53191489 161.34042553 55.53191489 161.34042553 55 164 C49.20627836 170.07634221 43.47486229 171.09592266 35.3125 171.5 C23.1371225 171.28074002 13.47510888 164.34790274 5 156 C4.67 155.01 4.34 154.02 4 153 C4.75925781 153.02320313 5.51851562 153.04640625 6.30078125 153.0703125 C7.29464844 153.08835937 8.28851562 153.10640625 9.3125 153.125 C10.29863281 153.14820313 11.28476563 153.17140625 12.30078125 153.1953125 C15.22406527 153.20682639 15.22406527 153.20682639 18 151 C18 150.01 18 149.02 18 148 C15.40651459 146.26794414 12.83481807 144.7179326 10.125 143.1875 C0.8423798 137.73844298 -7.50043144 131.44973859 -15.87353516 124.70898438 C-18.59615403 122.52088655 -21.33968205 120.3601905 -24.08691406 118.203125 C-25.28463256 117.26264736 -26.48070943 116.32007371 -27.67480469 115.375 C-30.06930337 113.48391512 -32.45905536 111.69396309 -35 110 C-35.33 111.98 -35.66 113.96 -36 116 C-51.93607044 117.03307059 -51.93607044 117.03307059 -56.375 113.25 C-59.54147181 109.89726514 -61.30466796 106.37434239 -61.5625 101.75 C-61.40431575 96.9016527 -59.72828294 94.50705901 -56.390625 91.1015625 C-52.47242914 87.65713542 -48.33986511 84.51307249 -44.16796875 81.38671875 C-35.34591628 75.0874779 -35.34591628 75.0874779 -30 66 C-29.58917677 61.48094447 -29.77238192 57.37586444 -31 53 C-31.928125 52.814375 -31.928125 52.814375 -32.875 52.625 C-35 52 -35 52 -37 50 C-39.57782453 38.1673628 -32.97522333 26.74608874 -27.15625 16.87109375 C-25.54048944 14.46581382 -23.85677069 12.22301445 -22 10 C-21.18789063 9.02160156 -21.18789063 9.02160156 -20.359375 8.0234375 C-15.12949496 2.28034493 -7.67763812 -4.15689264 0 0 Z " fill="#B2A268" transform="translate(1042,514)"/>
<path d="M0 0 C3.25402775 2.65337388 5.86987056 5.26835355 8.1796875 8.77734375 C8.8396875 9.68484375 9.4996875 10.59234375 10.1796875 11.52734375 C11.69703219 16.45871399 10.96216502 20.9700559 9.1796875 25.77734375 C7.09765625 29.109375 7.09765625 29.109375 4.1796875 31.77734375 C1.08351983 32.21337952 -0.98638559 32.29076248 -4.0078125 31.96484375 C-4.75869141 31.90296875 -5.50957031 31.84109375 -6.28320312 31.77734375 C-12.59316829 31.11428109 -19.18670494 29.41095131 -23.8203125 24.77734375 C-26.15328683 24.73641438 -28.48736475 24.73492652 -30.8203125 24.77734375 C-30.54194178 28.11779235 -30.10006117 29.49759508 -27.6953125 31.90234375 C-21.22749017 36.12048875 -13.77562836 38.30043365 -6.421875 40.4921875 C-1.8604169 41.89396449 1.96525755 43.07587896 5.1796875 46.77734375 C7.44284303 52.91168637 8.3392278 59.72592191 5.9921875 65.90234375 C3.37507875 70.0536197 0.90770483 73.20133797 -3.8203125 74.77734375 C-3.8203125 75.43734375 -3.8203125 76.09734375 -3.8203125 76.77734375 C-3.2634375 76.98359375 -2.7065625 77.18984375 -2.1328125 77.40234375 C3.4263861 80.70781319 6.02955445 85.86447785 8.1796875 91.77734375 C9.58692654 97.87537959 10.65946824 104.38970284 8.0859375 110.28125 C5.0393673 115.06987497 1.24243463 120.03019822 -3.8203125 122.77734375 C-6.68524132 123.24560101 -8.89549772 123.08521899 -11.8203125 122.77734375 C-11.8203125 121.78734375 -11.8203125 120.79734375 -11.8203125 119.77734375 C-10.5003125 119.44734375 -9.1803125 119.11734375 -7.8203125 118.77734375 C-8.36653455 115.77312245 -8.86654516 113.49982251 -11.3828125 111.59375 C-16.58659558 108.89743498 -22.18156978 107.30257744 -27.8203125 105.77734375 C-27.9028125 106.82921875 -27.9853125 107.88109375 -28.0703125 108.96484375 C-29.79921916 122.50794591 -35.37468943 135.71861853 -45.8203125 144.77734375 C-54.93944783 150.01679223 -63.32885575 151.90452505 -73.8203125 150.77734375 C-84.39121402 147.31957223 -91.03716402 141.49250845 -96.09863281 131.81982422 C-100.90589163 122.31874591 -103.95804591 113.38882504 -100.94921875 102.67578125 C-98.38684977 96.03882554 -95.09942318 90.60233738 -89.8203125 85.77734375 C-89.4903125 85.77734375 -89.1603125 85.77734375 -88.8203125 85.77734375 C-88.4903125 89.73734375 -88.1603125 93.69734375 -87.8203125 97.77734375 C-80.94468767 93.65196885 -77.31337545 89.26121639 -74.546875 81.81640625 C-71.15655299 67.63538192 -75.38206601 55.32552267 -81.3828125 42.58984375 C-85.65658902 33.48304048 -89.26566703 25.05023994 -87.8203125 14.77734375 C-84.23782396 8.32886437 -77.83863805 5.32405719 -70.90893555 3.18823242 C-65.57381421 1.73044195 -60.17324591 0.57989897 -54.7578125 -0.53515625 C-53.91937805 -0.71008606 -53.0809436 -0.88501587 -52.21710205 -1.06524658 C-14.11738528 -8.90191208 -14.11738528 -8.90191208 0 0 Z " fill="#B1A268" transform="translate(395.8203125,807.22265625)"/>
<path d="M0 0 C4.31278031 3.20021185 8.56737534 6.42800163 12.6875 9.875 C18.45993295 14.49294636 24.5834092 18.34594956 31 22 C31.6923877 22.39477539 32.38477539 22.78955078 33.09814453 23.19628906 C50.19995111 32.82570161 68.21070661 39.47217394 87 45 C86.23816148 51.25416272 83.93598599 54.27860184 80 59 C79.22462891 59.97646484 79.22462891 59.97646484 78.43359375 60.97265625 C73.6162684 66.81148673 67.90868742 71.31184856 62 76 C61.19175781 76.68578125 60.38351562 77.3715625 59.55078125 78.078125 C45.42082009 90.05642803 29.64898925 100.13695956 14 110 C13.2373584 110.48227051 12.4747168 110.96454102 11.68896484 111.46142578 C-16.7351332 129.38940284 -45.97250153 146.11504508 -75.6081543 161.94824219 C-80.62553017 164.63076197 -85.62546895 167.3331526 -90.57421875 170.140625 C-91.41364014 170.61604736 -92.25306152 171.09146973 -93.11791992 171.58129883 C-94.66506585 172.4621429 -96.20844976 173.34963997 -97.74731445 174.24487305 C-99.46568131 175.22276012 -101.22902853 176.12096198 -103 177 C-103.66 176.67 -104.32 176.34 -105 176 C-104.29617188 175.36835937 -103.59234375 174.73671875 -102.8671875 174.0859375 C-90.70823419 163.10426311 -79.12537474 151.94786465 -69.32226562 138.77539062 C-67.99340591 136.9911462 -66.6462559 135.22188184 -65.296875 133.453125 C-35.1129422 93.51396982 -15.8296743 47.12667397 0 0 Z " fill="#B1A268" transform="translate(639,1115)"/>
<path d="M0 0 C7.34369398 1.75625857 14.04330402 4.6448525 20.8125 7.9375 C21.8029834 8.41622559 22.7934668 8.89495117 23.81396484 9.38818359 C73.16350198 33.58067081 73.16350198 33.58067081 81 50 C80.9296875 52.40625 80.9296875 52.40625 80 55 C77.55859375 57.140625 77.55859375 57.140625 74.4375 59.25 C59.50771935 69.88824216 52.10420602 84.47612035 48 102 C33.25660011 102.17277422 33.25660011 102.17277422 28.8125 101.5 C19.23004817 100.24328501 9.78356789 101.18614646 0.25 102.4375 C-0.82121094 102.57220703 -1.89242187 102.70691406 -2.99609375 102.84570312 C-4.04410156 102.97783203 -5.09210937 103.10996094 -6.171875 103.24609375 C-7.67645264 103.42990601 -7.67645264 103.42990601 -9.21142578 103.61743164 C-10.93175778 103.85344637 -12.6473655 104.13514277 -14.34716797 104.48999023 C-18.18231089 105.24786811 -19.65257413 105.22842567 -22.9765625 103.04296875 C-24.28753906 101.62951172 -24.28753906 101.62951172 -25.625 100.1875 C-26.09156006 99.68774658 -26.55812012 99.18799316 -27.03881836 98.6730957 C-34.57899331 90.35068502 -39.4038594 81.60212943 -39.3125 70.1875 C-39.30758545 69.44975342 -39.3026709 68.71200684 -39.29760742 67.9519043 C-38.80602137 44.16670214 -30.02510303 22.55272967 -14 5 C-13.46503906 4.40960938 -12.93007813 3.81921875 -12.37890625 3.2109375 C-8.61671628 -0.43910047 -4.95983207 -0.81468259 0 0 Z " fill="#FDFDFE" transform="translate(945,454)"/>
<path d="M0 0 C8.14601655 4.55830288 13.9046275 12.35694124 19 20 C20.10656249 29.88140895 13.98299472 40.62609826 8 48.125 C4.53471978 51.72742851 0.91144101 54.93681347 -4.33984375 55.05078125 C-7.75113358 54.71352245 -10.74365105 54.08544965 -14 53 C-37.34708933 51.33744023 -58.57554882 51.67660293 -80 62 C-80.87237305 62.41620605 -81.74474609 62.83241211 -82.64355469 63.26123047 C-88.51972607 66.12238515 -94.28444018 69.13552671 -99.6796875 72.83984375 C-102 74 -102 74 -104.11328125 73.63671875 C-104.83902344 73.32347656 -105.56476563 73.01023437 -106.3125 72.6875 C-118.44667359 68.57695895 -129.80760069 70.97271177 -141.55078125 74.90625 C-145 76 -145 76 -148 76 C-144.62880798 68.42833332 -137.78483473 65.06168792 -130.4375 62.0625 C-128.84796165 61.38253355 -127.25943026 60.7002087 -125.671875 60.015625 C-124.4952832 59.51192383 -124.4952832 59.51192383 -123.29492188 58.99804688 C-119.88582895 57.51545412 -116.52763986 55.94381543 -113.1875 54.3125 C-112.10855469 53.79300781 -111.02960938 53.27351562 -109.91796875 52.73828125 C-106.71327001 50.8291903 -104.52107924 48.73976532 -102 46 C-100.90558594 44.81470703 -100.90558594 44.81470703 -99.7890625 43.60546875 C-97.52273969 41.07324164 -95.2606041 38.53733322 -93 36 C-92.37609375 35.31550781 -91.7521875 34.63101563 -91.109375 33.92578125 C-82.87934803 24.88638674 -82.87934803 24.88638674 -77.75 14 C-76 11 -76 11 -74.00512695 10.31787109 C-66.25281454 9.05724897 -58.48973631 8.38558641 -50.66470337 7.79589844 C-29.45241187 6.41565684 -29.45241187 6.41565684 -9.2265625 0.37890625 C-5.36583352 -1.27101788 -3.95110841 -1.37079271 0 0 Z " fill="#B1A168" transform="translate(404,739)"/>
<path d="M0 0 C0.71607422 -0.020625 1.43214844 -0.04125 2.16992188 -0.0625 C7.20102908 -0.09912316 11.15990808 0.352447 15.4375 3.25 C17.01184959 6.62520761 17.69537746 10.11410768 18.4375 13.75 C20.28724782 21.64102037 22.15612401 27.76452378 27.01953125 34.32421875 C29.59854323 37.82684384 29.59894586 40.97194095 29.625 45.1875 C29.63917969 46.22777344 29.65335937 47.26804687 29.66796875 48.33984375 C29.34605828 52.40464541 28.48481938 54.31173352 25.44921875 57.03125 C24.68222656 57.5984375 23.91523438 58.165625 23.125 58.75 C22.31675781 59.36230469 21.50851562 59.97460938 20.67578125 60.60546875 C19.07296627 61.78310419 17.44918403 62.93240865 15.8125 64.0625 C6.92732799 72.24621106 0.92803106 84.53285427 0.25 96.58203125 C0.13669433 103.23165755 0.66600621 108.87262236 2.4375 115.25 C1.99609375 117.4609375 1.99609375 117.4609375 1.4375 119.25 C-22.22711005 103.15616057 -33.48632259 81.25128589 -39.00390625 53.3828125 C-39.72735488 49.3254293 -40.33529686 45.36638636 -40.5625 41.25 C-40.62695312 40.1465625 -40.69140625 39.043125 -40.7578125 37.90625 C-41.12720202 26.38129687 -38.17442991 18.83960898 -30.5625 10.25 C-21.62170105 1.16614826 -12.2826978 0.08892451 0 0 Z " fill="#FCFDFD" transform="translate(277.5625,823.75)"/>
<path d="M0 0 C5.15519825 3.81655561 8.35718828 7.6700332 9.5078125 14.078125 C9.96763063 21.87504109 7.9971901 27.29061802 3 33.25 C-6.2538087 42.59506914 -19.89330482 47.3844771 -32.90136719 47.63037109 C-43.74921585 47.60620618 -53.3861307 46.81563598 -61.5625 38.85546875 C-67.04036879 32.7375229 -67.76320366 27.86423607 -67.51171875 19.6953125 C-66.41755817 12.32852142 -61.67481959 7.10714884 -55.96875 2.58984375 C-39.14676179 -8.85845378 -17.70964437 -10.69592383 0 0 Z " fill="#FCFCFD" transform="translate(536,234.75)"/>
<path d="M0 0 C6.92034289 5.24114204 11.47361628 13.83946347 14 22 C13.94136057 25.53968948 13.26044728 26.70975985 10.8828125 29.359375 C9.97273437 30.14828125 9.06265625 30.9371875 8.125 31.75 C7.38515869 32.39787476 7.38515869 32.39787476 6.63037109 33.05883789 C2.45770443 36.68588894 -1.82098883 40.18767825 -6.12890625 43.65234375 C-8.15007031 45.30502348 -10.12870635 46.97105667 -12.08984375 48.69140625 C-19.61943463 55.27419675 -27.3615137 60.92475713 -36 66 C-36.98097656 66.5775 -37.96195313 67.155 -38.97265625 67.75 C-42.50517112 69.20858679 -45.21396735 69.22716196 -49 69 C-50.52280046 65.3423989 -52.01397125 61.67267767 -53.5 58 C-53.92925781 56.97003906 -54.35851562 55.94007813 -54.80078125 54.87890625 C-57.13933787 49.05107468 -59.01925804 44.29007875 -58 38 C-56.0859375 35.63671875 -56.0859375 35.63671875 -53.375 33.6875 C-52.36566406 32.9346875 -51.35632813 32.181875 -50.31640625 31.40625 C-49.50260498 30.82037109 -49.50260498 30.82037109 -48.67236328 30.22265625 C-46.40591612 28.56566831 -44.22279677 26.81271552 -42.03100586 25.05883789 C-33.83447737 18.51815022 -25.4832558 12.16370351 -17 6 C-16.44586426 5.5963623 -15.89172852 5.19272461 -15.32080078 4.77685547 C-13.85468637 3.72467052 -12.36553983 2.70478838 -10.875 1.6875 C-10.06804688 1.13449219 -9.26109375 0.58148438 -8.4296875 0.01171875 C-5.16106532 -1.34933132 -3.36062231 -1.02958057 0 0 Z " fill="#FCFCFD" transform="translate(624,450)"/>
<path d="M0 0 C6.16017618 1.43259911 8.76806925 4.54360724 12.125 9.7421875 C13.37058244 12.95623505 13.26391302 15.81348431 13.25 19.25 C13.25773438 21.14492188 13.25773438 21.14492188 13.265625 23.078125 C12.71725535 31.17464165 10.96366293 35.91283102 5.4375 41.875 C4.62732422 42.78161377 4.62732422 42.78161377 3.80078125 43.70654297 C2.7128726 44.92109502 1.61905521 46.13038353 0.51904297 47.33398438 C-0.79479165 48.77493703 -2.08521 50.23717516 -3.37109375 51.703125 C-7.52778179 56.43183433 -11.85093268 60.99728269 -16.25 65.5 C-16.9934668 66.27561279 -16.9934668 66.27561279 -17.75195312 67.06689453 C-20.62748378 69.96854878 -23.07987072 71.79820854 -27 73 C-27.20753906 72.42894531 -27.41507813 71.85789062 -27.62890625 71.26953125 C-30.07153683 64.84101814 -33.1320753 59.00998919 -36.609375 53.078125 C-38.13737063 49.69593242 -38.46641748 47.66543303 -38 44 C-36.96875 42.12890625 -36.96875 42.12890625 -35.5 40.5625 C-34.94570313 39.97082031 -34.39140625 39.37914062 -33.8203125 38.76953125 C-31.40382903 36.42046041 -28.90212782 34.20023394 -26.33984375 32.01171875 C-10.09550898 18.30669634 -10.09550898 18.30669634 0 0 Z " fill="#FCFCFD" transform="translate(671,393)"/>
<path d="M0 0 C6.11307545 3.15842232 9.85533677 11.68190087 11.875 17.96875 C12.24804423 20.29606467 12.58858169 22.62919446 12.875 24.96875 C12.18277344 25.3498291 11.49054687 25.7309082 10.77734375 26.12353516 C-5.65881468 35.18345319 -21.960153 44.43084537 -38.125 53.96875 C-45.2240566 46.8932783 -45.2240566 46.8932783 -47.125 43.96875 C-47.125 40.2575536 -45.78504741 38.34808964 -43.3515625 35.734375 C-42.16276782 34.55060623 -40.96148747 33.3792841 -39.75 32.21875 C-39.11513672 31.59822754 -38.48027344 30.97770508 -37.82617188 30.33837891 C-33.40373553 26.06594982 -28.8167075 22.07695489 -23.9921875 18.26171875 C-19.89874087 14.98807683 -15.94740506 11.55560923 -11.98242188 8.12841797 C-10.87766432 7.17561236 -9.76941118 6.22684045 -8.65722656 5.28271484 C-7.23625996 4.06416126 -5.84704432 2.80884595 -4.4609375 1.55078125 C-2.125 -0.03125 -2.125 -0.03125 0 0 Z " fill="#FBFBFC" transform="translate(554.125,502.03125)"/>
<path d="M0 0 C6.27520681 3.97839909 11.81122916 7.71684374 16 14 C15.90758268 18.89811777 14.88171599 21.99247049 11.54296875 25.64453125 C8.93250967 27.93776999 6.09005023 29.42468028 3 31 C-2.81517929 24.25894021 -3.17467453 13.78470539 -4.27734375 5.2421875 C-4 3 -4 3 -2.00390625 1.1953125 C-1.34261719 0.80085937 -0.68132812 0.40640625 0 0 Z " fill="#AD9F68" transform="translate(417,844)"/>
<path d="M0 0 C3.44004627 1.14668209 4.26635169 1.87943304 6 5 C6.125 7.5 6.125 7.5 5 10 C-1.1688225 14.62661688 -10.28428429 18 -18 18 C-12.06 12.06 -6.12 6.12 0 0 Z " fill="#F1F4F6" transform="translate(498,551)"/>
</svg>
