<?xml version="1.0" encoding="UTF-8"?>
<!DOCTYPE svg PUBLIC "-//W3C//DTD SVG 1.1//EN" "http://www.w3.org/Graphics/SVG/1.1/DTD/svg11.dtd">
<svg xmlns="http://www.w3.org/2000/svg" version="1.1" width="2560px" height="1608px" style="shape-rendering:geometricPrecision; text-rendering:geometricPrecision; image-rendering:optimizeQuality; fill-rule:evenodd; clip-rule:evenodd" xmlns:xlink="http://www.w3.org/1999/xlink">
<g><path style="opacity:0.989" fill="#000000" d="M 1292.5,10.5 C 1381.5,10.5 1470.5,10.5 1559.5,10.5C 1559.5,163.833 1559.5,317.167 1559.5,470.5C 1473.83,470.667 1388.17,470.5 1302.5,470C 1215.09,394.293 1114.42,343.959 1000.5,319C 864.097,289.846 735.43,309.846 614.5,379C 548.853,418.313 497.02,471.147 459,537.5C 417.614,616.818 404.947,700.484 421,788.5C 433.524,841.889 457.858,888.889 494,929.5C 536.208,974.358 585.375,1009.52 641.5,1035C 768.354,1091.95 900.021,1107.28 1036.5,1081C 1116.23,1063.64 1185.89,1027.64 1245.5,973C 1291.11,929.136 1322.11,876.469 1338.5,815C 1314.84,814.5 1291.17,814.333 1267.5,814.5C 1259.78,853.762 1252.45,893.096 1245.5,932.5C 1168.17,932.5 1090.83,932.5 1013.5,932.5C 1013.5,794.167 1013.5,655.833 1013.5,517.5C 1526.17,517.5 2038.83,517.5 2551.5,517.5C 2551.5,655.833 2551.5,794.167 2551.5,932.5C 2474.17,932.667 2396.83,932.5 2319.5,932C 2312.18,892.92 2305.18,853.754 2298.5,814.5C 2203.5,814.5 2108.5,814.5 2013.5,814.5C 2013.5,988.5 2013.5,1162.5 2013.5,1336.5C 2058.5,1336.5 2103.5,1336.5 2148.5,1336.5C 2148.5,1425.5 2148.5,1514.5 2148.5,1603.5C 1939.83,1603.5 1731.17,1603.5 1522.5,1603.5C 1522.5,1514.5 1522.5,1425.5 1522.5,1336.5C 1567.5,1336.5 1612.5,1336.5 1657.5,1336.5C 1657.5,1162.83 1657.5,989.167 1657.5,815.5C 1635.17,815.5 1612.83,815.5 1590.5,815.5C 1590.5,971.833 1590.5,1128.17 1590.5,1284.5C 1496.17,1284.5 1401.83,1284.5 1307.5,1284.5C 1307.83,1269.82 1307.5,1255.15 1306.5,1240.5C 1230.72,1276.59 1151.72,1303.43 1069.5,1321C 973.59,1341.95 876.59,1354.11 778.5,1357.5C 601.267,1357.46 438.933,1308.96 291.5,1212C 210.976,1156.81 144.81,1087.98 93,1005.5C 1.21697,848.217 -13.4497,683.884 49,512.5C 85.3129,420.588 137.98,339.588 207,269.5C 345.638,132.434 512.138,49.9338 706.5,22C 892.057,1.0374 1069.39,30.0374 1238.5,109C 1256.57,118.118 1274.4,127.618 1292,137.5C 1292.5,95.168 1292.67,52.8346 1292.5,10.5 Z M 1337.5,55.5 C 1395.83,55.5 1454.17,55.5 1512.5,55.5C 1512.5,178.833 1512.5,302.167 1512.5,425.5C 1447.5,425.667 1382.5,425.5 1317.5,425C 1199.19,326.867 1062.86,272.534 908.5,262C 776.875,255.891 657.542,290.558 550.5,366C 427.035,459.772 366.202,584.605 368,740.5C 374.287,837.226 412.454,918.726 482.5,985C 547.921,1043.73 623.254,1085.4 708.5,1110C 810.891,1141.34 914.891,1148.34 1020.5,1131C 1119.26,1113.62 1205.26,1071.28 1278.5,1004C 1344.62,939.428 1382.28,861.095 1391.5,769C 1337.5,768.333 1283.5,768.333 1229.5,769C 1221.26,808.018 1213.6,847.185 1206.5,886.5C 1157.17,886.5 1107.83,886.5 1058.5,886.5C 1058.5,778.833 1058.5,671.167 1058.5,563.5C 1540.83,563.5 2023.17,563.5 2505.5,563.5C 2505.5,671.167 2505.5,778.833 2505.5,886.5C 2456.17,886.667 2406.83,886.5 2357.5,886C 2350.02,846.949 2343.02,807.782 2336.5,768.5C 2213.5,768.5 2090.5,768.5 1967.5,768.5C 1967.5,972.833 1967.5,1177.17 1967.5,1381.5C 2012.41,1381.17 2057.24,1381.5 2102,1382.5C 2102.5,1440.83 2102.67,1499.17 2102.5,1557.5C 1924.17,1557.5 1745.83,1557.5 1567.5,1557.5C 1567.33,1499.17 1567.5,1440.83 1568,1382.5C 1613.09,1381.5 1658.26,1381.17 1703.5,1381.5C 1703.67,1177.5 1703.5,973.5 1703,769.5C 1650.24,768.503 1597.4,768.169 1544.5,768.5C 1544.5,925.167 1544.5,1081.83 1544.5,1238.5C 1480.83,1238.5 1417.17,1238.5 1353.5,1238.5C 1354.7,1212.84 1354.7,1187.17 1353.5,1161.5C 1287.86,1201.89 1217.86,1232.73 1143.5,1254C 1005.94,1293.9 865.61,1312.24 722.5,1309C 567.966,1299.27 427.633,1250.27 301.5,1162C 225.057,1106.57 163.89,1037.73 118,955.5C 49.7833,823.378 39.1166,686.711 86,545.5C 115.451,464.164 158.784,391.497 216,327.5C 350.268,181.935 516.101,95.1017 713.5,67C 877.915,48.3926 1036.25,71.3926 1188.5,136C 1226.86,152.671 1263.19,172.671 1297.5,196C 1310.59,202.961 1323.75,209.794 1337,216.5C 1337.5,162.834 1337.67,109.168 1337.5,55.5 Z"/></g>
</svg>
