<?xml version="1.0" encoding="UTF-8"?>
<!DOCTYPE svg PUBLIC "-//W3C//DTD SVG 1.1//EN" "http://www.w3.org/Graphics/SVG/1.1/DTD/svg11.dtd">
<svg xmlns="http://www.w3.org/2000/svg" version="1.1" width="4000px" height="3000px" style="shape-rendering:geometricPrecision; text-rendering:geometricPrecision; image-rendering:optimizeQuality; fill-rule:evenodd; clip-rule:evenodd" xmlns:xlink="http://www.w3.org/1999/xlink">
<g><path style="opacity:0.977" fill="#000000" d="M 432.5,1216.5 C 466.168,1216.33 499.835,1216.5 533.5,1217C 563.758,1220.59 582.924,1237.09 591,1266.5C 594.024,1284.86 592.69,1302.86 587,1320.5C 582.809,1328.21 577.643,1335.21 571.5,1341.5C 582.822,1352.48 589.655,1365.81 592,1381.5C 598.274,1417.44 585.774,1444.28 554.5,1462C 549.923,1463.64 545.256,1464.98 540.5,1466C 504.522,1467.42 468.522,1467.92 432.5,1467.5C 432.5,1383.83 432.5,1300.17 432.5,1216.5 Z M 464.5,1249.5 C 489.219,1249.04 513.885,1249.54 538.5,1251C 554.125,1258.07 561.125,1270.24 559.5,1287.5C 560.824,1304.36 553.824,1316.2 538.5,1323C 513.885,1324.46 489.219,1324.96 464.5,1324.5C 464.5,1299.5 464.5,1274.5 464.5,1249.5 Z M 464.5,1358.5 C 487.502,1358.33 510.502,1358.5 533.5,1359C 552.044,1364.41 560.711,1376.91 559.5,1396.5C 560.592,1416.89 551.259,1429.39 531.5,1434C 509.169,1434.5 486.836,1434.67 464.5,1434.5C 464.5,1409.17 464.5,1383.83 464.5,1358.5 Z"/></g>
<g><path style="opacity:0.97" fill="#000000" d="M 3008.5,1216.5 C 3045.17,1216.33 3081.83,1216.5 3118.5,1217C 3131.74,1220.58 3139.91,1229.08 3143,1242.5C 3143.67,1308.5 3143.67,1374.5 3143,1440.5C 3139.91,1453.92 3131.74,1462.42 3118.5,1466C 3081.83,1466.67 3045.17,1466.67 3008.5,1466C 2997.29,1463.13 2989.45,1456.29 2985,1445.5C 2983.35,1378.2 2983.02,1310.86 2984,1243.5C 2986.8,1229.54 2994.97,1220.54 3008.5,1216.5 Z M 3016.5,1249.5 C 3048.17,1249.5 3079.83,1249.5 3111.5,1249.5C 3111.5,1311.17 3111.5,1372.83 3111.5,1434.5C 3079.83,1434.5 3048.17,1434.5 3016.5,1434.5C 3016.5,1372.83 3016.5,1311.17 3016.5,1249.5 Z"/></g>
<g><path style="opacity:0.97" fill="#000000" d="M 3240.5,1216.5 C 3277.17,1216.33 3313.83,1216.5 3350.5,1217C 3364.19,1220.69 3372.36,1229.53 3375,1243.5C 3375.67,1309.17 3375.67,1374.83 3375,1440.5C 3371.91,1453.92 3363.74,1462.42 3350.5,1466C 3313.83,1466.67 3277.17,1466.67 3240.5,1466C 3229.29,1463.13 3221.45,1456.29 3217,1445.5C 3215.35,1377.87 3215.02,1310.2 3216,1242.5C 3219.25,1229.09 3227.42,1220.42 3240.5,1216.5 Z M 3248.5,1249.5 C 3280.17,1249.5 3311.83,1249.5 3343.5,1249.5C 3343.5,1311.17 3343.5,1372.83 3343.5,1434.5C 3311.83,1434.5 3280.17,1434.5 3248.5,1434.5C 3248.5,1372.83 3248.5,1311.17 3248.5,1249.5 Z"/></g>
<g><path style="opacity:0.981" fill="#000000" d="M 3462.5,1216.5 C 3489.5,1216.5 3516.5,1216.5 3543.5,1216.5C 3543.5,1289.17 3543.5,1361.83 3543.5,1434.5C 3553.83,1434.5 3564.17,1434.5 3574.5,1434.5C 3574.33,1411.16 3574.5,1387.83 3575,1364.5C 3580.6,1352.86 3589.1,1350.02 3600.5,1356C 3603.11,1357.94 3604.94,1360.44 3606,1363.5C 3606.67,1394.17 3606.67,1424.83 3606,1455.5C 3604.17,1460.67 3600.67,1464.17 3595.5,1466C 3550.17,1466.67 3504.83,1466.67 3459.5,1466C 3448.68,1461.56 3445.18,1453.72 3449,1442.5C 3450.5,1439.67 3452.67,1437.5 3455.5,1436C 3474.1,1434.54 3492.76,1434.04 3511.5,1434.5C 3511.5,1372.83 3511.5,1311.17 3511.5,1249.5C 3494.83,1249.67 3478.16,1249.5 3461.5,1249C 3448.69,1244.22 3445.19,1235.72 3451,1223.5C 3454.27,1219.96 3458.11,1217.63 3462.5,1216.5 Z"/></g>
<g><path style="opacity:0.979" fill="#000000" d="M 2101.5,1230.5 C 2110.09,1230.21 2116.26,1233.87 2120,1241.5C 2120.5,1256.16 2120.67,1270.83 2120.5,1285.5C 2143.5,1285.33 2166.5,1285.5 2189.5,1286C 2198.55,1290.6 2201.72,1297.77 2199,1307.5C 2196.63,1312.43 2192.8,1315.6 2187.5,1317C 2165.17,1317.5 2142.84,1317.67 2120.5,1317.5C 2120.33,1352.5 2120.5,1387.5 2121,1422.5C 2122.83,1428.33 2126.67,1432.17 2132.5,1434C 2145.5,1434.67 2158.5,1434.67 2171.5,1434C 2174.24,1432.93 2176.74,1431.43 2179,1429.5C 2181.71,1424.7 2184.05,1419.7 2186,1414.5C 2193.18,1406.6 2201.35,1405.43 2210.5,1411C 2215.19,1416.66 2216.69,1423.16 2215,1430.5C 2211.63,1442.06 2205.13,1451.56 2195.5,1459C 2190.17,1462.17 2184.5,1464.5 2178.5,1466C 2161.17,1466.67 2143.83,1466.67 2126.5,1466C 2106.67,1460.83 2094.17,1448.33 2089,1428.5C 2088.5,1391.5 2088.33,1354.5 2088.5,1317.5C 2080.75,1317.9 2073.08,1317.4 2065.5,1316C 2056.64,1310.69 2054.14,1303.19 2058,1293.5C 2059.5,1290.67 2061.67,1288.5 2064.5,1287C 2072.39,1285.56 2080.39,1285.06 2088.5,1285.5C 2088.33,1271.16 2088.5,1256.83 2089,1242.5C 2091.09,1236.25 2095.25,1232.25 2101.5,1230.5 Z"/></g>
<g><path style="opacity:0.965" fill="#000000" d="M 805.5,1284.5 C 816.235,1284.07 822.735,1289.07 825,1299.5C 825.667,1350.5 825.667,1401.5 825,1452.5C 820.938,1465.95 812.438,1469.78 799.5,1464C 797.291,1462.13 795.458,1459.96 794,1457.5C 792.861,1451.56 792.195,1445.56 792,1439.5C 782.167,1446 772.333,1452.5 762.5,1459C 756.463,1462.12 750.13,1464.46 743.5,1466C 731.833,1466.67 720.167,1466.67 708.5,1466C 687.78,1460.61 675.28,1447.45 671,1426.5C 668.587,1383.52 666.921,1340.52 666,1297.5C 669.79,1287.52 676.956,1283.69 687.5,1286C 692.428,1287.93 695.594,1291.43 697,1296.5C 699.255,1333.45 700.921,1370.45 702,1407.5C 702.333,1412.5 702.667,1417.5 703,1422.5C 704.406,1427.57 707.572,1431.07 712.5,1433C 721.787,1434.48 731.121,1434.82 740.5,1434C 757.366,1422.97 774.366,1412.14 791.5,1401.5C 792.333,1366.84 792.833,1332.17 793,1297.5C 795.353,1291.32 799.52,1286.98 805.5,1284.5 Z"/></g>
<g><path style="opacity:0.974" fill="#000000" d="M 917.5,1284.5 C 959.501,1284.33 1001.5,1284.5 1043.5,1285C 1054.49,1288.71 1058.83,1296.37 1056.5,1308C 1057.15,1314.25 1055.98,1320.08 1053,1325.5C 1015.5,1361.67 978,1397.83 940.5,1434C 975.167,1434.33 1009.83,1434.67 1044.5,1435C 1054.59,1439.36 1058.09,1446.86 1055,1457.5C 1052.78,1461.39 1049.61,1464.22 1045.5,1466C 999.5,1466.67 953.5,1466.67 907.5,1466C 898.971,1461.44 895.305,1454.28 896.5,1444.5C 895.816,1437.9 897.316,1431.9 901,1426.5C 938.5,1390.33 976,1354.17 1013.5,1318C 980.106,1317.98 946.773,1317.31 913.5,1316C 903.662,1309.15 901.996,1300.65 908.5,1290.5C 911.084,1287.72 914.084,1285.72 917.5,1284.5 Z"/></g>
<g><path style="opacity:0.974" fill="#000000" d="M 1149.5,1284.5 C 1191.5,1284.33 1233.5,1284.5 1275.5,1285C 1286.49,1288.71 1290.83,1296.37 1288.5,1308C 1289.45,1314.84 1287.95,1321.01 1284,1326.5C 1246.83,1362.33 1209.67,1398.17 1172.5,1434C 1207.17,1434.33 1241.83,1434.67 1276.5,1435C 1286.61,1439.39 1290.11,1446.89 1287,1457.5C 1284.78,1461.39 1281.61,1464.22 1277.5,1466C 1231.5,1466.67 1185.5,1466.67 1139.5,1466C 1130.36,1461.55 1126.7,1454.21 1128.5,1444C 1127.64,1437.51 1129.14,1431.68 1133,1426.5C 1170.5,1390.33 1208,1354.17 1245.5,1318C 1212.11,1317.98 1178.77,1317.31 1145.5,1316C 1135.21,1308.39 1133.87,1299.39 1141.5,1289C 1144.1,1287.2 1146.77,1285.7 1149.5,1284.5 Z"/></g>
<g><path style="opacity:0.965" fill="#000000" d="M 2533.5,1284.5 C 2544.65,1284.15 2551.15,1289.49 2553,1300.5C 2553.33,1306.83 2553.67,1313.17 2554,1319.5C 2562.22,1311.65 2570.72,1304.15 2579.5,1297C 2591.87,1286.86 2606.04,1283.03 2622,1285.5C 2649.15,1282.4 2667.82,1293.4 2678,1318.5C 2680.69,1328.1 2681.02,1337.77 2679,1347.5C 2673.34,1357.79 2665.18,1360.29 2654.5,1355C 2652.29,1353.13 2650.46,1350.96 2649,1348.5C 2647.84,1341.9 2647.17,1335.23 2647,1328.5C 2645.44,1323.12 2641.94,1319.62 2636.5,1318C 2627.17,1317.33 2617.83,1317.33 2608.5,1318C 2604.2,1319.81 2600.2,1322.15 2596.5,1325C 2582.24,1337.38 2568.07,1349.88 2554,1362.5C 2553.96,1393.87 2553.3,1425.21 2552,1456.5C 2546.34,1466.79 2538.18,1469.29 2527.5,1464C 2524.13,1461.64 2521.96,1458.47 2521,1454.5C 2520.33,1402.17 2520.33,1349.83 2521,1297.5C 2522.68,1290.65 2526.85,1286.32 2533.5,1284.5 Z"/></g>
<g><path style="opacity:0.971" fill="#000000" d="M 1425.5,1285.5 C 1453.84,1285.33 1482.17,1285.5 1510.5,1286C 1520.42,1291.31 1523.26,1299.15 1519,1309.5C 1516.36,1313.13 1512.86,1315.63 1508.5,1317C 1482.44,1317.03 1456.44,1317.69 1430.5,1319C 1418.68,1327.67 1407.52,1337.17 1397,1347.5C 1395.15,1350.57 1394.15,1353.9 1394,1357.5C 1393.33,1370.5 1393.33,1383.5 1394,1396.5C 1394.39,1401.9 1396.89,1406.06 1401.5,1409C 1411.13,1417.48 1421.13,1425.48 1431.5,1433C 1457.12,1434.3 1482.78,1434.96 1508.5,1435C 1519.32,1439.44 1522.82,1447.28 1519,1458.5C 1517.09,1462.04 1514.26,1464.54 1510.5,1466C 1485.87,1467.61 1461.2,1467.94 1436.5,1467C 1426.18,1467 1416.84,1464 1408.5,1458C 1395.05,1446.52 1381.88,1434.68 1369,1422.5C 1365.58,1417.66 1363.25,1412.32 1362,1406.5C 1361.33,1385.83 1361.33,1365.17 1362,1344.5C 1364.98,1333.84 1370.82,1325.01 1379.5,1318C 1388.83,1310 1398.17,1302 1407.5,1294C 1413.21,1290.31 1419.21,1287.48 1425.5,1285.5 Z"/></g>
<g><path style="opacity:0.972" fill="#000000" d="M 1634.5,1285.5 C 1659.84,1285.33 1685.17,1285.5 1710.5,1286C 1731.31,1291.79 1743.81,1305.29 1748,1326.5C 1749.58,1366 1751.08,1405.5 1752.5,1445C 1753.25,1460.59 1745.92,1467.59 1730.5,1466C 1724.07,1463.23 1720.24,1458.4 1719,1451.5C 1710.75,1457.04 1702.25,1462.21 1693.5,1467C 1672.14,1467.88 1650.81,1467.54 1629.5,1466C 1606.75,1459.25 1594.25,1444.08 1592,1420.5C 1590.07,1405.25 1592.07,1390.58 1598,1376.5C 1605.99,1363.58 1617.49,1355.75 1632.5,1353C 1657.83,1352.33 1683.17,1352.33 1708.5,1353C 1710.56,1353.31 1712.56,1353.81 1714.5,1354.5C 1715.67,1345.85 1715.83,1337.19 1715,1328.5C 1713.53,1323.03 1710.03,1319.53 1704.5,1318C 1681.83,1317.67 1659.17,1317.33 1636.5,1317C 1623.94,1311.37 1621.11,1302.54 1628,1290.5C 1630.33,1288.93 1632.49,1287.27 1634.5,1285.5 Z M 1636.5,1385.5 C 1660.57,1385.03 1684.57,1385.53 1708.5,1387C 1712.82,1389.32 1715.65,1392.82 1717,1397.5C 1717.35,1402.18 1717.85,1406.85 1718.5,1411.5C 1718.17,1412.5 1717.83,1413.5 1717.5,1414.5C 1706.96,1420.87 1696.3,1427.03 1685.5,1433C 1668.83,1433.67 1652.17,1433.67 1635.5,1433C 1626.11,1428.04 1622.44,1420.21 1624.5,1409.5C 1622.3,1398.1 1626.3,1390.1 1636.5,1385.5 Z"/></g>
<g><path style="opacity:0.97" fill="#000000" d="M 1860.5,1285.5 C 1890.84,1285.33 1921.17,1285.5 1951.5,1286C 1963.46,1288.73 1973.3,1294.9 1981,1304.5C 1988,1318.52 1984,1327.52 1969,1331.5C 1961.92,1330.2 1956.08,1326.7 1951.5,1321C 1949.73,1319.56 1947.73,1318.56 1945.5,1318C 1919.17,1317.33 1892.83,1317.33 1866.5,1318C 1859.29,1322.01 1858.62,1327.01 1864.5,1333C 1895.58,1346.81 1926.58,1360.81 1957.5,1375C 1978.87,1391.11 1985.37,1411.95 1977,1437.5C 1968.14,1455.68 1953.64,1465.51 1933.5,1467C 1911.83,1467.67 1890.17,1467.67 1868.5,1467C 1852.32,1465.99 1838.82,1459.49 1828,1447.5C 1821.32,1433.19 1825.66,1424.19 1841,1420.5C 1847.8,1422.32 1853.64,1425.82 1858.5,1431C 1861.36,1432.4 1864.36,1433.4 1867.5,1434C 1890.5,1434.67 1913.5,1434.67 1936.5,1434C 1946.9,1429.36 1950.4,1421.53 1947,1410.5C 1945.54,1408.04 1943.71,1405.87 1941.5,1404C 1911.17,1390.33 1880.83,1376.67 1850.5,1363C 1826.29,1346.48 1821.79,1325.65 1837,1300.5C 1843.23,1292.81 1851.06,1287.81 1860.5,1285.5 Z"/></g>
<g><path style="opacity:0.97" fill="#000000" d="M 2338.5,1285.5 C 2359.17,1285.33 2379.84,1285.5 2400.5,1286C 2408.22,1288.36 2415.22,1292.02 2421.5,1297C 2428,1303.5 2434.5,1310 2441,1316.5C 2445.03,1323.63 2447.37,1331.3 2448,1339.5C 2448.67,1354.83 2448.67,1370.17 2448,1385.5C 2446.09,1393.08 2441.25,1397.58 2433.5,1399C 2396.17,1399.5 2358.83,1399.67 2321.5,1399.5C 2319.65,1408.44 2321.98,1415.94 2328.5,1422C 2333.32,1425.91 2338.32,1429.58 2343.5,1433C 2374.12,1434.3 2404.79,1434.97 2435.5,1435C 2447.88,1439.99 2451.04,1448.49 2445,1460.5C 2441.74,1464.38 2437.57,1466.55 2432.5,1467C 2404.5,1467.67 2376.5,1467.67 2348.5,1467C 2338.84,1466.56 2329.84,1463.89 2321.5,1459C 2312.35,1451.85 2303.85,1444.01 2296,1435.5C 2292.83,1430.17 2290.5,1424.5 2289,1418.5C 2288.33,1390.17 2288.33,1361.83 2289,1333.5C 2291.55,1323.91 2296.05,1315.41 2302.5,1308C 2308.83,1303 2315.17,1298 2321.5,1293C 2326.87,1289.61 2332.54,1287.11 2338.5,1285.5 Z M 2348.5,1317.5 C 2362.5,1317.33 2376.5,1317.5 2390.5,1318C 2400.01,1321.5 2407.84,1327.33 2414,1335.5C 2416.22,1345.69 2417.06,1356.03 2416.5,1366.5C 2384.83,1366.5 2353.17,1366.5 2321.5,1366.5C 2321.07,1356.09 2321.57,1345.75 2323,1335.5C 2327.48,1330.69 2332.31,1326.19 2337.5,1322C 2341.05,1319.88 2344.72,1318.38 2348.5,1317.5 Z"/></g>
<g><path style="opacity:0.995" fill="#000000" d="M 2711.5,1482.5 C 2790.5,1482.5 2869.5,1482.5 2948.5,1482.5C 2948.5,1493.17 2948.5,1503.83 2948.5,1514.5C 2869.5,1514.5 2790.5,1514.5 2711.5,1514.5C 2711.5,1503.83 2711.5,1493.17 2711.5,1482.5 Z"/></g>
</svg>
